<svg id="Layer_1" data-name="Layer 1" xmlns="http://www.w3.org/2000/svg" viewBox="0 0 616 300"><path d="M156.79,115.58H79.07V226.74H28.43V115.58H.72V78.31H28.43V72.9q0-35.36,19-54T99.77.28h19.11V48.37H99.77q-9.24,0-14.81,6.21T79.07,72.9v5.41H207.43V226.74H156.79Zm-5.42-86.64a26.52,26.52,0,0,1,9.08-20.38A30.84,30.84,0,0,1,182,.28a30.13,30.13,0,0,1,21.5,8.28,27,27,0,0,1,8.76,20.38,27.45,27.45,0,0,1-8.76,20.55A29.8,29.8,0,0,1,182,57.93a30.22,30.22,0,0,1-21.5-8.6Q151.38,40.74,151.37,28.94Z"/><path d="M313.18,78.31H367L275.27,300H222.08l37.27-93L201.06,78.31h55.42l29,72Z"/><path d="M413.19,213.05V300H362.54V78.31h47.78V99.65a40.77,40.77,0,0,1,18.32-18.79,55,55,0,0,1,25.64-6.37q29,0,50.64,21.34t21.66,56.06q0,34.73-21.66,56.22t-50.64,21.5Q428.15,229.61,413.19,213.05Zm52.71-39.66a30.76,30.76,0,0,0,0-43.64,29.76,29.76,0,0,0-21.82-9.07q-12.42,0-21.66,9.55a31.07,31.07,0,0,0-9.23,22.3,28.33,28.33,0,0,0,9.08,21.18,30.28,30.28,0,0,0,21.81,8.76A29.77,29.77,0,0,0,465.9,173.39Z"/><path d="M551.64,221a35.68,35.68,0,0,1,0-51.46,36.58,36.58,0,0,1,26.21-10.49,38.48,38.48,0,0,1,26.92,10.25q11.21,10.25,11.2,26t-11.2,26a38.48,38.48,0,0,1-26.92,10.25A36.58,36.58,0,0,1,551.64,221Z"/></svg>